<?xml version="1.0" standalone="no"?>
<!DOCTYPE svg PUBLIC "-//W3C//DTD SVG 20010904//EN"
 "http://www.w3.org/TR/2001/REC-SVG-20010904/DTD/svg10.dtd">
<svg version="1.0" xmlns="http://www.w3.org/2000/svg"
 width="300.000000pt" height="375.000000pt" viewBox="0 0 300.000000 375.000000"
 preserveAspectRatio="xMidYMid meet">
<metadata>
Created by potrace 1.10, written by Peter Selinger 2001-2011
</metadata>
<g transform="translate(0.000000,375.000000) scale(0.100000,-0.100000)"
fill="#000000" stroke="none">
<path d="M1573 3682 c65 -65 67 -69 67 -118 0 -41 5 -55 25 -74 23 -22 25 -30
25 -115 0 -75 -3 -97 -19 -116 -20 -26 -33 -119 -16 -119 6 0 9 20 7 48 -3 38
0 51 17 66 19 17 21 30 21 121 0 95 -2 103 -25 125 -20 19 -25 33 -25 75 0 49
-2 53 -63 113 -34 34 -67 62 -72 62 -5 0 21 -30 58 -68z"/>
<path d="M1782 3738 c-7 -7 -12 -35 -12 -63 0 -39 -5 -56 -20 -70 -16 -14 -20
-31 -20 -80 0 -53 4 -65 25 -85 21 -20 25 -32 25 -84 0 -59 -2 -62 -51 -114
l-50 -53 2 -80 c1 -49 6 -78 12 -76 6 2 9 35 8 83 l-2 79 45 45 46 44 0 71 c0
63 -3 74 -25 95 -20 19 -25 33 -25 75 0 42 5 56 25 75 20 19 25 33 25 75 0 28
5 56 12 63 7 7 8 12 2 12 -5 0 -15 -5 -22 -12z"/>
<path d="M1881 3695 l-51 -54 0 -183 0 -184 -50 -49 -50 -49 0 -76 c0 -75 0
-76 -40 -115 -39 -38 -40 -41 -40 -105 0 -61 3 -69 30 -95 26 -25 30 -36 30
-80 0 -44 -4 -55 -30 -80 -28 -27 -30 -33 -30 -105 0 -64 3 -80 20 -95 16 -15
20 -31 20 -89 l0 -72 -50 -49 -50 -49 0 -111 0 -111 45 -44 c45 -44 45 -44 45
-115 l0 -71 -55 -54 -55 -54 0 -151 0 -151 -40 4 c-22 2 -40 6 -40 9 0 2 14
16 30 30 l30 25 0 121 0 122 54 56 c30 31 52 59 49 62 -3 3 -29 -20 -59 -51
l-53 -57 -1 -112 c0 -98 -2 -112 -17 -116 -16 -4 -15 -5 1 -6 17 -1 15 -6 -14
-36 -28 -29 -41 -35 -77 -35 -50 0 -53 7 -18 40 23 22 25 30 25 125 0 56 3
163 7 238 5 118 8 135 21 125 10 -9 12 -23 8 -51 -5 -29 -3 -38 6 -35 19 7 10
79 -13 104 -15 16 -19 35 -19 93 0 63 -3 75 -22 91 l-23 18 28 27 c25 26 27
34 27 109 l0 82 -45 44 c-25 24 -45 52 -45 61 0 39 25 30 82 -29 33 -34 62
-62 64 -62 15 0 -4 27 -56 76 -55 52 -59 59 -45 73 14 14 20 11 66 -37 28 -29
53 -51 55 -49 3 3 -19 27 -48 55 l-53 51 23 23 22 22 0 -27 c0 -19 14 -43 45
-76 39 -42 45 -54 45 -92 0 -40 -5 -50 -45 -89 l-45 -44 0 -146 0 -146 35 -34
c48 -46 47 -82 -2 -132 -20 -21 -34 -40 -31 -43 3 -4 24 13 47 37 55 58 55 90
1 143 l-40 39 0 136 0 136 45 44 c43 42 45 47 45 100 0 52 -3 59 -40 95 l-40
39 0 151 c0 138 2 152 20 168 17 14 20 29 20 98 l0 81 -62 65 -63 65 -2 151
-2 152 -35 33 c-20 17 -35 40 -33 50 1 9 -2 17 -8 17 -5 0 -9 -6 -9 -13 2 -10
-1 -10 -12 -1 -9 7 -14 32 -14 70 0 33 -4 59 -10 59 -5 0 -10 -24 -10 -53 0
-44 4 -58 24 -76 l24 -23 -5 -223 -6 -223 54 -57 c45 -48 54 -63 54 -94 0 -20
5 -38 10 -40 6 -2 9 11 7 30 -4 29 -2 32 12 20 27 -23 19 -64 -19 -101 l-35
-34 0 -116 c0 -75 4 -120 12 -128 8 -8 8 -15 -2 -26 -7 -9 -16 -13 -21 -10 -5
3 -9 103 -9 222 l0 218 -60 59 -60 59 0 121 0 121 -45 44 c-44 43 -45 45 -45
110 l0 66 -51 49 -50 50 3 88 c2 50 -1 86 -6 84 -5 -2 -8 -33 -7 -70 1 -39 -2
-67 -8 -67 -5 0 -28 -19 -50 -42 l-41 -41 0 -252 0 -251 -30 -29 -30 -29 0
113 c0 77 -3 112 -11 109 -7 -2 -11 -55 -10 -163 l2 -160 109 -110 110 -110 0
-166 0 -165 -27 -27 -28 -26 3 151 4 151 -116 116 -117 117 1 424 c1 234 -2
426 -7 427 -4 2 -7 -122 -5 -274 l3 -278 -26 25 -26 25 3 177 c2 137 0 178 -9
178 -10 0 -13 -41 -13 -173 l0 -173 35 -38 35 -39 0 -146 0 -147 60 -59 60
-59 0 -77 0 -77 -41 -36 c-23 -19 -38 -40 -34 -46 4 -7 21 6 45 32 38 42 39
45 40 118 l0 74 45 -44 45 -44 0 -296 0 -295 80 -80 81 -80 -2 -168 c0 -93 2
-171 5 -174 3 -4 6 74 6 172 0 170 -1 180 -22 202 l-22 24 72 72 72 72 0 174
0 173 -62 70 -61 69 2 182 1 182 -60 60 -60 59 0 115 0 115 35 -34 c33 -32 35
-38 35 -100 0 -62 2 -68 35 -100 19 -19 35 -43 35 -55 0 -12 22 -42 50 -70
l50 -49 0 -186 0 -186 30 -29 30 -29 0 -137 c0 -110 3 -139 15 -149 14 -12 13
-15 -5 -35 -16 -17 -20 -35 -20 -92 0 -69 1 -72 40 -112 37 -38 40 -45 40 -99
0 -57 -1 -59 -55 -112 l-55 -54 0 -82 c0 -56 -4 -84 -12 -88 -10 -5 -10 -7 0
-12 6 -3 12 -20 12 -37 0 -18 4 -27 8 -20 4 6 9 62 10 125 l3 113 44 45 45 45
0 -128 0 -127 -30 0 c-16 0 -30 -5 -30 -11 0 -6 7 -9 15 -5 8 3 22 3 30 0 12
-5 10 -10 -10 -26 -14 -11 -25 -26 -25 -34 0 -10 -13 -14 -49 -14 -27 0 -85
-7 -128 -15 -43 -8 -79 -15 -80 -15 -2 0 -3 14 -3 31 0 19 7 37 18 45 16 13
16 13 0 14 -15 0 -18 9 -18 55 0 51 -3 58 -45 102 l-45 48 0 75 0 76 55 54
c30 29 52 56 50 59 -3 3 -30 -20 -60 -49 l-55 -54 0 -86 0 -86 45 -44 c43 -42
45 -47 45 -102 0 -45 -3 -58 -15 -58 -8 0 -15 -5 -15 -11 0 -6 7 -9 15 -5 12
4 15 -3 15 -34 0 -28 -4 -40 -14 -40 -8 0 -21 -3 -30 -6 -14 -5 -16 3 -16 53
0 47 -4 64 -20 78 -16 14 -20 31 -20 79 l0 62 -60 59 -60 59 0 296 0 296 -45
44 -45 44 0 133 c0 122 2 134 20 145 11 7 20 18 20 25 0 21 -16 15 -34 -12
-13 -19 -16 -52 -16 -152 l-1 -128 -28 33 c-15 17 -31 32 -34 32 -19 0 0 -25
73 -96 l80 -77 0 -111 0 -110 -31 30 c-28 27 -30 33 -27 88 2 38 -1 61 -8 63
-8 3 -10 -16 -7 -64 5 -60 9 -72 39 -103 33 -35 34 -39 34 -115 l0 -79 -75 77
-75 78 0 147 0 148 -55 54 c-51 50 -55 58 -55 100 0 42 4 50 50 95 l50 49 0
70 c0 55 4 74 19 90 16 17 20 40 23 129 2 62 0 106 -6 104 -5 -2 -8 -47 -7
-100 2 -74 -2 -102 -13 -119 -15 -21 -16 -11 -16 131 0 104 -3 152 -11 149 -7
-2 -10 -76 -9 -228 l1 -225 -41 -40 -41 -40 3 363 c2 199 -1 361 -5 359 -4 -1
-8 -191 -7 -422 l0 -420 50 -50 50 -51 0 -145 0 -145 45 -44 c41 -40 45 -49
45 -91 0 -39 -5 -51 -25 -67 -24 -19 -33 -42 -17 -42 4 0 20 16 35 35 23 28
27 42 22 65 -8 37 1 38 37 3 27 -25 28 -31 28 -118 l0 -91 60 -59 60 -59 0
-62 c0 -48 4 -65 20 -79 23 -21 26 -41 8 -49 -10 -5 -10 -7 0 -12 6 -3 12 -21
12 -39 0 -45 -26 -54 -59 -21 -25 25 -25 26 -6 42 19 15 19 15 -7 9 l-28 -5 0
68 0 68 -55 54 -55 54 0 63 c0 45 -4 63 -13 63 -10 0 -12 -16 -9 -65 4 -65 5
-66 63 -122 l59 -56 0 -61 0 -61 -90 92 -90 92 0 99 0 98 -45 44 -45 44 0 144
0 144 -30 35 c-28 31 -30 39 -30 111 0 95 -23 157 -45 121 -4 -6 2 -17 14 -25
16 -11 21 -26 21 -57 l0 -41 -55 54 c-50 50 -55 58 -55 99 0 38 6 51 34 81 33
34 34 38 38 123 2 57 -1 87 -8 87 -7 0 -9 -28 -6 -82 4 -82 4 -83 -27 -112
l-31 -30 0 110 0 110 35 34 35 34 0 270 c1 250 2 273 19 294 11 12 24 22 30
22 6 0 11 7 11 15 0 23 -18 18 -45 -12 -24 -28 -24 -30 -25 -238 l0 -209 -55
54 -55 54 0 258 0 257 -40 42 c-22 23 -40 46 -40 51 0 4 -9 8 -20 8 -27 0 -25
-19 4 -29 13 -5 37 -27 55 -48 l31 -38 0 -256 0 -257 60 -55 60 -56 0 -58 c0
-56 -2 -61 -40 -98 l-40 -39 0 -167 0 -167 65 -61 c58 -54 65 -64 65 -99 0
-29 7 -45 30 -67 l30 -29 0 -135 0 -135 -56 54 -55 55 3 143 c2 103 0 142 -9
142 -8 0 -12 -42 -12 -142 l-2 -143 106 -105 105 -105 0 -100 0 -100 99 -98
c80 -80 95 -99 82 -107 -9 -4 -13 -12 -9 -16 4 -4 14 -2 22 5 11 9 20 7 42
-14 15 -14 25 -27 23 -28 -2 -2 -39 -22 -81 -45 -72 -38 -77 -39 -83 -21 -4
10 -9 19 -13 19 -17 0 -182 -143 -226 -196 -135 -162 -220 -352 -251 -560 -6
-36 -4 -41 14 -40 19 1 21 -6 25 -119 5 -138 40 -304 60 -284 3 2 -4 40 -15
84 -63 262 -15 545 133 770 97 148 232 267 396 349 l52 26 0 -27 c0 -45 -37
-108 -75 -129 -19 -10 -35 -23 -35 -30 0 -6 -24 -30 -52 -53 -29 -23 -72 -66
-96 -94 -24 -29 -54 -64 -67 -80 -16 -18 -33 -27 -53 -27 -17 0 -38 -3 -47 -6
-19 -8 -55 -76 -80 -153 -16 -50 -16 -56 -1 -88 13 -27 15 -53 10 -136 -4 -67
-12 -108 -21 -119 -17 -19 -11 -95 17 -195 11 -39 14 -67 8 -77 -6 -10 -5 -16
1 -16 17 0 23 39 12 73 -6 18 -18 68 -26 111 -14 71 -14 81 0 96 9 9 15 35 15
61 0 24 4 70 10 103 8 50 7 64 -9 95 -19 36 -19 37 4 102 41 117 49 127 104
135 46 6 52 10 105 78 31 39 84 95 118 124 54 45 63 50 72 35 6 -12 5 -18 -3
-21 -28 -9 -115 -88 -166 -149 -138 -167 -206 -391 -184 -603 11 -108 48 -234
71 -238 15 -3 15 1 -2 45 -36 96 -49 182 -45 297 9 309 174 561 455 695 213
102 484 98 699 -12 88 -45 199 -137 263 -217 159 -201 209 -491 126 -738 -17
-50 -21 -72 -12 -72 33 0 75 188 75 335 -1 194 -79 396 -206 531 l-35 37 22
24 c14 15 19 27 12 31 -6 4 -38 28 -71 55 -128 99 -267 157 -432 178 l-87 12
-3 44 c-2 41 0 43 26 45 70 4 98 -3 124 -35 15 -18 25 -35 22 -39 -2 -5 1 -8
6 -8 6 0 11 5 11 10 0 6 5 10 10 10 6 0 10 -9 10 -21 0 -11 5 -17 10 -14 6 4
8 11 5 16 -9 14 4 11 84 -18 52 -19 79 -34 89 -52 8 -14 46 -46 84 -70 37 -24
73 -50 79 -58 6 -7 30 -13 53 -13 37 0 45 -5 82 -48 22 -26 51 -62 64 -79 l23
-33 -18 -54 -19 -54 26 -59 c39 -86 58 -159 64 -243 5 -55 13 -85 30 -112 27
-42 29 -68 13 -152 -8 -47 -8 -65 5 -97 9 -21 13 -46 9 -56 -5 -15 -4 -16 8
-5 11 11 11 20 -4 61 -12 34 -14 57 -8 73 4 12 11 49 15 80 7 52 5 61 -17 90
-20 26 -28 54 -37 128 -10 88 -44 209 -76 272 -12 23 -11 32 7 73 l21 47 -28
41 c-15 22 -47 63 -72 89 -37 40 -51 48 -81 48 -52 1 -97 42 -104 98 l-5 42
31 -17 c16 -10 70 -56 119 -102 154 -145 247 -313 290 -521 25 -120 20 -324
-11 -438 -12 -46 -15 -72 -8 -69 19 6 47 137 54 250 5 98 8 107 26 107 19 0
20 5 14 70 -12 148 -84 342 -177 481 -24 35 -80 101 -126 147 -56 56 -83 92
-86 111 l-4 30 24 -20 c14 -11 28 -17 31 -13 9 9 -51 54 -71 54 -15 0 -18 9
-18 53 l0 52 85 85 85 85 0 126 c0 121 -1 126 -25 149 -38 36 -33 76 15 125
l39 40 3 383 c2 310 1 382 -10 380 -10 -2 -13 -79 -12 -383 l0 -381 -30 -29
-30 -29 0 139 0 139 -55 52 -55 53 0 148 0 149 55 54 55 54 0 338 c0 214 4
339 10 343 6 3 10 11 10 16 0 6 -4 7 -10 4 -6 -4 -10 7 -10 24 0 17 -4 31 -10
31 -17 0 -12 136 5 150 18 15 22 170 5 170 -6 0 -10 -33 -10 -79 0 -44 -4 -83
-10 -86 -5 -3 -10 -41 -10 -83 l0 -78 -60 -59 -60 -59 0 -68 c0 -88 17 -89 19
0 2 67 2 67 54 120 28 28 54 52 57 52 3 0 5 -14 4 -31 -2 -22 -16 -45 -48 -78
-39 -39 -46 -53 -46 -86 0 -35 -6 -45 -65 -100 -59 -55 -65 -64 -65 -101 0
-34 6 -46 45 -84 43 -42 45 -47 45 -100 0 -54 -1 -57 -55 -110 l-55 -54 0 -96
0 -96 40 -39 40 -39 0 -95 0 -94 -50 -53 -50 -53 0 -91 c0 -67 4 -97 16 -116
24 -36 13 -119 -21 -154 -24 -25 -25 -30 -25 -161 0 -123 2 -138 20 -154 17
-16 20 -31 20 -107 0 -52 4 -88 10 -88 6 0 10 16 10 36 0 21 4 33 10 29 6 -3
10 -1 10 4 0 6 -4 11 -10 11 -5 0 -10 20 -10 44 0 28 -7 52 -20 69 -18 22 -20
40 -20 159 0 131 1 135 25 158 22 20 25 32 25 86 0 35 -4 66 -10 69 -6 3 -10
51 -10 108 l0 103 50 49 50 49 0 96 0 96 -45 44 -45 44 0 86 0 86 55 54 55 54
0 66 c0 65 -1 67 -45 110 -64 63 -61 83 20 167 56 57 65 72 65 103 0 29 8 44
40 75 l40 39 0 -325 0 -325 -50 -49 -50 -49 0 -155 0 -155 50 -51 49 -50 2
-149 1 -149 -101 -101 -102 -102 3 -237 c2 -130 3 -237 2 -237 0 0 -36 18 -80
39 -43 22 -107 48 -141 58 l-63 18 -2 45 -1 45 -4 -42 c-2 -24 -8 -43 -14 -43
-5 0 -9 62 -9 148 l0 148 55 54 55 54 0 81 0 81 -40 39 -40 39 0 111 0 111 45
44 45 44 0 82 c0 60 -4 85 -15 94 -11 9 -15 33 -15 89 0 70 3 80 25 101 21 20
25 32 25 85 0 55 -3 64 -30 90 -26 25 -30 36 -30 85 0 52 3 59 40 95 40 39 40
40 40 115 l0 76 55 54 55 54 0 187 0 187 50 45 c28 25 46 48 42 51 -5 3 -33
-19 -61 -49z m-772 -190 c40 -38 41 -41 41 -105 0 -66 0 -66 50 -115 l50 -49
0 -120 0 -120 60 -61 59 -60 1 -225 c1 -124 -1 -233 -5 -243 -7 -17 -9 -17
-26 -1 -17 16 -19 34 -19 203 l0 187 -55 54 c-32 31 -55 63 -55 75 0 12 -16
36 -35 55 -33 32 -35 38 -35 99 0 63 -2 67 -40 106 -35 36 -41 48 -42 89 0 30
-5 45 -12 43 -6 -2 -10 -19 -8 -38 l2 -34 -35 39 c-35 39 -35 40 -35 131 0 50
3 95 7 99 4 3 28 -15 55 -41 l48 -47 0 -81 0 -81 50 -49 50 -49 0 -80 0 -81
78 -78 77 -77 0 -200 c0 -110 3 -200 8 -200 4 0 7 91 7 203 l0 203 -75 74 -75
74 0 81 0 81 -50 49 -50 49 0 80 0 80 -52 54 -53 53 29 26 c28 24 30 24 37 7
4 -11 25 -37 48 -59z m291 -280 l0 -151 60 -59 60 -59 0 -88 c0 -48 -4 -89 -9
-92 -8 -5 -21 71 -21 129 0 24 -12 43 -56 85 l-55 55 3 138 c2 87 -1 137 -7
137 -6 0 -9 -52 -7 -142 l3 -143 50 -50 c39 -40 49 -58 49 -83 l0 -33 -65 64
-65 65 0 218 0 218 30 -29 30 -29 0 -151z m-390 33 c29 -33 29 -34 30 -158 l0
-126 60 -59 60 -59 0 -186 0 -186 65 -64 65 -64 0 -170 0 -171 -72 -72 -72
-73 -48 47 -48 47 0 136 0 136 30 29 30 29 0 176 0 175 -105 105 c-99 99 -105
107 -105 145 0 34 6 47 35 75 l35 34 0 143 c0 79 2 143 5 143 3 0 19 -15 35
-32z m461 -522 c-18 -19 -21 -37 -23 -136 -2 -94 -6 -115 -18 -115 -13 0 -14
18 -12 120 4 117 5 121 33 150 16 17 30 42 31 55 1 14 3 8 5 -14 3 -29 -1 -44
-16 -60z m15 -38 c-2 -24 -4 -73 -5 -110 -1 -38 -5 -68 -11 -68 -13 0 -13 176
0 201 16 29 20 23 16 -23z m-36 -500 c0 -66 -3 -77 -25 -98 -20 -19 -27 -21
-40 -10 -12 10 -15 38 -15 141 l0 129 40 -44 c39 -42 40 -45 40 -118z m-20
-281 l0 -101 -35 34 c-33 32 -35 37 -35 104 0 52 4 74 17 89 17 18 18 18 35
-3 15 -18 18 -41 18 -123z m664 -95 c-3 -10 7 -29 25 -46 l31 -30 0 -121 0
-120 -85 -85 c-80 -80 -85 -87 -85 -127 0 -24 -2 -43 -5 -43 -3 0 -17 8 -32
17 -42 28 -22 -2 27 -39 26 -19 46 -44 48 -57 3 -21 2 -21 -19 -11 -19 11 -24
10 -35 -5 -11 -15 -15 -16 -34 -2 -21 14 -21 21 -20 258 l1 244 92 93 c50 50
92 92 93 92 1 0 0 -8 -2 -18z m-774 -572 c0 -31 3 -41 9 -30 6 8 7 27 4 42 -5
25 -3 28 21 28 24 0 26 -3 26 -44 l0 -43 -75 -7 c-64 -6 -151 -25 -232 -51
-33 -11 -30 19 4 34 21 10 28 9 34 -1 7 -10 9 -9 9 5 0 10 8 17 19 17 10 0 26
11 34 24 9 13 23 31 32 40 9 9 12 16 7 16 -5 0 -23 -16 -41 -35 -38 -43 -51
-44 -51 -6 0 25 5 30 43 39 23 5 62 8 87 6 34 -3 40 -2 25 6 -17 7 -15 9 13 7
31 -1 32 -2 32 -47z m258 34 c22 -6 32 -44 12 -44 -5 0 -10 8 -10 18 0 12 -2
14 -8 4 -7 -9 -13 -8 -27 8 -20 22 -11 25 33 14z m113 -33 c30 -10 87 -35 127
-55 71 -36 72 -37 72 -76 l0 -41 -38 22 c-21 13 -46 35 -54 50 -11 19 -33 34
-68 46 -29 10 -54 23 -57 29 -2 6 -17 8 -33 6 -25 -4 -30 -1 -30 17 0 26 12
26 81 2z m-581 -19 c0 -22 -7 -30 -30 -39 -30 -11 -30 -11 -30 22 0 33 9 43
43 44 12 1 17 -7 17 -27z m-70 -27 c0 -24 -5 -35 -15 -35 -15 0 -22 50 -8 63
15 15 23 5 23 -28z m420 -46 c32 -9 25 -10 -100 -14 -58 -1 -121 -5 -140 -8
-57 -9 -159 -45 -216 -76 -50 -27 -66 -18 -21 12 42 27 203 73 317 91 40 6
133 3 160 -5z m-422 -16 c-5 -25 -28 -28 -28 -4 0 12 6 21 16 21 9 0 14 -7 12
-17z m560 -6 c6 0 12 -4 12 -9 0 -4 -15 -6 -32 -2 -18 3 -38 7 -45 8 -7 1 -16
6 -20 10 -4 5 10 5 32 1 22 -4 46 -8 53 -8z m156 -62 c86 -46 155 -94 167
-117 12 -22 11 -22 -7 -8 -10 7 -23 19 -29 25 -18 19 -90 62 -142 86 -29 13
-52 27 -53 32 0 12 15 8 64 -18z"/>
<path d="M2050 3671 c0 -44 -4 -83 -10 -86 -5 -3 -10 -36 -10 -73 l0 -68 -50
-49 -50 -49 0 -78 c0 -43 3 -78 8 -78 4 0 6 33 4 73 l-4 72 51 50 51 49 0 67
c0 46 4 70 15 79 16 13 21 170 4 170 -5 0 -9 -36 -9 -79z"/>
<path d="M1983 3641 c-30 -34 -32 -42 -34 -121 -1 -47 2 -83 7 -80 4 3 7 38 5
79 l-3 73 43 44 c24 24 37 44 29 43 -8 0 -29 -17 -47 -38z"/>
<path d="M1450 3657 c0 -2 25 -30 55 -63 l55 -59 0 -77 c0 -45 4 -78 10 -78 6
0 10 32 10 78 l0 77 -61 63 c-56 57 -69 68 -69 59z"/>
<path d="M1907 3643 c-4 -3 -7 -115 -7 -248 l0 -241 -45 -44 c-42 -41 -45 -48
-45 -95 0 -45 4 -55 35 -85 31 -30 35 -40 35 -85 0 -47 -3 -54 -45 -95 l-45
-44 0 -127 0 -127 50 -42 50 -42 0 -87 0 -87 -40 -39 -40 -39 0 -166 c0 -153
-2 -168 -19 -184 -17 -16 -20 -34 -23 -137 -2 -65 0 -119 5 -119 4 0 7 51 7
113 0 101 2 116 20 132 18 17 20 31 20 189 l0 171 45 44 45 45 0 74 0 74 -55
61 -55 60 0 112 0 111 50 49 c47 46 50 52 50 100 0 45 -4 55 -35 85 -31 30
-35 40 -35 85 0 46 4 55 41 92 l41 42 4 250 c2 138 2 251 0 251 -1 0 -6 -3 -9
-7z"/>
<path d="M1560 3612 c30 -25 34 -35 36 -82 2 -44 8 -58 33 -84 44 -45 43 -91
-4 -136 -33 -32 -35 -37 -35 -101 0 -60 3 -70 25 -87 14 -11 25 -25 25 -31 0
-6 5 -11 10 -11 19 0 10 21 -20 47 -27 23 -30 30 -30 87 0 59 2 65 35 95 30
27 35 38 35 74 0 35 -6 49 -30 72 -25 24 -30 37 -30 74 -1 37 -7 53 -30 79
-16 17 -35 32 -42 32 -7 0 3 -13 22 -28z"/>
<path d="M1878 3448 l3 -183 -60 -60 -61 -59 0 -76 c0 -69 -3 -79 -25 -100
-21 -20 -25 -33 -25 -80 0 -44 4 -61 20 -75 17 -15 20 -31 20 -105 0 -79 -2
-88 -25 -110 -30 -28 -32 -61 -5 -85 18 -16 20 -31 20 -139 l0 -122 -45 -44
-45 -44 0 -91 0 -91 36 -35 35 -34 -2 -82 c-2 -46 1 -83 5 -83 5 0 8 39 7 88
-2 85 -3 88 -37 122 -33 35 -34 38 -34 115 l0 80 47 49 47 49 1 120 c1 101 -2
123 -17 142 -23 30 -23 58 2 80 17 16 20 31 20 115 0 84 -3 99 -20 115 -31 28
-28 104 5 135 22 21 25 31 25 98 l0 74 60 65 60 64 0 184 c0 102 -3 185 -7
185 -5 0 -7 -82 -5 -182z"/>
<path d="M1170 3590 c0 -6 16 -24 35 -41 32 -29 35 -35 35 -88 0 -53 3 -59 40
-96 22 -21 40 -35 40 -29 0 6 -16 25 -35 44 -32 31 -35 39 -35 89 -1 50 -4 60
-35 94 -37 39 -45 44 -45 27z"/>
<path d="M1430 3562 c0 -4 23 -30 50 -57 l50 -49 0 -161 0 -160 67 -68 c36
-37 68 -66 70 -63 3 2 -23 33 -56 68 l-61 63 -2 125 c-1 69 -2 141 -3 161 0
30 -10 47 -53 93 -53 56 -62 63 -62 48z"/>
<path d="M1396 3502 c-2 -4 11 -20 30 -35 l34 -28 0 -152 0 -153 75 -74 75
-74 0 -126 0 -126 -30 -29 c-30 -29 -30 -29 -30 -140 l0 -111 35 -34 c31 -30
35 -40 35 -85 0 -47 -3 -54 -45 -95 l-45 -44 0 -146 0 -146 40 -39 c34 -33 40
-45 40 -80 0 -36 -6 -47 -60 -100 l-60 -59 0 -108 c0 -72 -4 -108 -11 -108 -6
0 -9 -6 -6 -14 3 -8 -5 -24 -19 -37 -13 -12 -22 -25 -19 -27 3 -3 19 7 35 23
30 29 30 29 30 145 l0 116 60 59 c58 57 60 61 60 110 0 45 -4 55 -35 85 l-35
34 0 146 0 146 40 39 c38 37 40 42 40 100 0 57 -3 64 -35 95 l-35 34 0 99 c0
96 1 100 30 134 l30 34 0 132 0 133 -75 74 -75 74 0 151 -1 150 -29 33 c-32
34 -36 37 -44 24z"/>
<path d="M1738 3347 c4 -60 2 -65 -23 -86 -16 -12 -25 -24 -22 -27 3 -4 17 7
31 22 20 23 25 40 26 82 0 28 0 55 1 59 0 4 -3 9 -8 10 -5 2 -7 -25 -5 -60z"/>
<path d="M1433 3235 l-3 -124 70 -69 70 -69 0 -96 c0 -93 -1 -98 -30 -130 -28
-32 -30 -40 -30 -116 0 -44 3 -81 8 -81 4 0 5 37 4 82 -4 81 -3 84 27 112 31
29 31 31 31 131 l0 101 -65 64 -65 64 0 128 c0 70 -3 128 -7 128 -5 0 -9 -56
-10 -125z"/>
<path d="M1812 2328 c-2 -49 -6 -56 -57 -108 l-55 -56 0 -75 c0 -68 3 -78 26
-100 24 -22 25 -28 23 -119 -1 -52 2 -95 6 -95 4 0 7 45 6 99 -2 92 -4 100
-27 118 -21 17 -24 27 -24 91 l0 71 59 61 c55 55 60 64 62 109 2 27 -1 51 -7
53 -5 2 -11 -20 -12 -49z"/>
<path d="M1782 2187 c-47 -48 -52 -57 -52 -98 0 -36 5 -51 26 -70 24 -22 25
-28 23 -119 -1 -52 2 -93 7 -90 4 3 7 46 5 95 -2 72 -6 94 -22 111 -13 14 -19
35 -19 71 0 47 3 53 50 97 28 26 50 49 50 51 0 14 -21 -1 -68 -48z"/>
<path d="M1738 1563 c3 -130 5 -139 28 -164 13 -14 24 -33 24 -42 0 -13 -5
-15 -25 -7 -16 6 -25 6 -25 0 0 -6 11 -15 25 -20 20 -8 25 -16 25 -44 0 -19 5
-38 10 -41 6 -4 10 8 10 29 0 19 6 37 13 40 10 5 10 7 0 12 -7 3 -13 13 -13
23 0 9 -13 30 -30 46 l-30 29 0 138 c0 76 -3 138 -7 138 -5 0 -7 -62 -5 -137z"/>
<path d="M1708 1550 l4 -120 -31 -31 c-32 -31 -40 -70 -21 -99 7 -11 10 -5 10
23 0 35 2 37 25 31 15 -4 25 -2 25 5 0 6 -9 11 -20 11 -11 0 -20 3 -20 8 0 4
9 13 20 20 18 11 20 23 20 142 0 72 -3 130 -7 130 -5 0 -6 -54 -5 -120z"/>
<path d="M1649 1633 c0 -5 0 -46 1 -92 1 -78 0 -85 -26 -112 -15 -16 -25 -31
-23 -34 3 -3 18 8 33 24 25 26 27 34 29 124 1 54 -1 97 -5 97 -5 0 -8 -3 -9
-7z"/>
<path d="M1185 1390 c-11 -5 -15 -9 -10 -10 21 -4 71 2 85 11 20 11 -48 11
-75 -1z"/>
<path d="M837 1264 c-16 -9 -26 -18 -23 -21 7 -8 66 17 66 28 0 12 -10 11 -43
-7z"/>
<path d="M690 1160 c-19 -16 -32 -31 -29 -34 3 -3 21 7 40 23 19 16 32 31 29
34 -3 3 -21 -7 -40 -23z"/>
<path d="M2172 1073 c15 -15 31 -24 34 -20 10 10 -26 47 -45 47 -11 0 -8 -7
11 -27z"/>
<path d="M2220 1024 c0 -10 59 -68 64 -63 7 6 -43 69 -55 69 -5 0 -9 -2 -9 -6z"/>
<path d="M491 950 c-12 -17 -21 -36 -19 -42 2 -6 16 8 31 31 31 47 22 56 -12
11z"/>
<path d="M427 850 c-10 -16 -13 -30 -8 -30 6 0 17 14 26 30 9 17 12 30 7 30
-4 0 -16 -13 -25 -30z"/>
<path d="M2338 874 c-7 -7 24 -64 35 -64 10 0 9 7 -8 40 -16 32 -18 33 -27 24z"/>
<path d="M2380 785 c0 -12 35 -75 42 -75 11 0 10 4 -9 45 -14 29 -33 47 -33
30z"/>
<path d="M351 689 c-13 -44 -7 -67 7 -28 19 51 23 69 14 69 -5 0 -14 -18 -21
-41z"/>
<path d="M320 596 c-12 -33 -13 -46 -1 -46 9 0 24 60 16 68 -2 3 -9 -7 -15
-22z"/>
<path d="M2456 583 c8 -32 24 -55 24 -32 0 26 -12 59 -21 59 -5 0 -6 -12 -3
-27z"/>
<path d="M2480 515 c-4 -20 2 -70 11 -85 6 -11 8 -7 8 15 -1 32 -16 87 -19 70z"/>
<path d="M286 428 c-9 -35 -7 -68 4 -68 6 0 10 13 10 29 0 16 3 36 6 45 3 9 2
16 -4 16 -5 0 -12 -10 -16 -22z"/>
<path d="M280 305 c0 -19 5 -35 10 -35 6 0 10 16 10 35 0 19 -4 35 -10 35 -5
0 -10 -16 -10 -35z"/>
<path d="M2490 285 c0 -19 5 -35 10 -35 6 0 10 16 10 35 0 19 -4 35 -10 35 -5
0 -10 -16 -10 -35z"/>
<path d="M2488 193 c-4 -48 -3 -61 7 -51 11 11 17 98 7 98 -5 0 -12 -21 -14
-47z"/>
<path d="M290 150 c0 -35 11 -70 21 -70 10 0 0 71 -12 85 -5 5 -9 -1 -9 -15z"/>
</g>
</svg>
